<svg xmlns="http://www.w3.org/2000/svg" viewBox="0 0 24 24" width="24" height="24"><path fill="#0077b5" d="M22.23 0H1.77C.792 0 0 .774 0 1.729v20.542C0 23.226.792 24 1.77 24h20.46c.978 0 1.77-.774 1.77-1.729V1.729C24 .774 23.208 0 22.23 0zM7.12 20.452H3.56V9h3.56v11.452zM5.34 7.433a2.07 2.07 0 110-4.14 2.07 2.07 0 010 4.14zm15.112 13.019h-3.56v-5.604c0-1.336-.027-3.058-1.865-3.058-1.867 0-2.153 1.454-2.153 2.957v5.705h-3.56V9h3.418v1.561h.049c.476-.9 1.637-1.848 3.37-1.848 3.602 0 4.267 2.37 4.267 5.455v6.284z"/></svg>